inDegrees=yes
name=ik_S40_A11_T01
DataType=double
version=3
OpenSimVersion=4.3-2021-08-27-4bc7ad9
endheader
time	pelvis_tilt	pelvis_list	pelvis_rotation	pelvis_tx	pelvis_ty	pelvis_tz	hip_flexion_r	hip_adduction_r	hip_rotation_r	knee_angle_r	knee_angle_r_beta	ankle_angle_r	subtalar_angle_r	mtp_angle_r	hip_flexion_l	hip_adduction_l	hip_rotation_l	knee_angle_l	knee_angle_l_beta	ankle_angle_l	subtalar_angle_l	mtp_angle_l	lumbar_extension	lumbar_bending	lumbar_rotation	arm_flex_r	arm_add_r	arm_rot_r	elbow_flex_r	pro_sup_r	wrist_flex_r	wrist_dev_r	arm_flex_l	arm_add_l	arm_rot_l	elbow_flex_l	pro_sup_l	wrist_flex_l	wrist_dev_l
3.860000000000003	2.464525328136362	-0.8573944552427681	20.9781656029642	0	0.9399999999999999	0	29.02858726879766	-9.074317295278828	-8.263985672040636	34.18198028660876	0.5965881008531179	0	0	0	29.02858726879766	-9.074317295278828	-8.263985672040636	34.18198028660876	0.5965881008531179	0	0	0	2.346804921756229	-1.207117801580589	9.360700552778917	64.90705476836338	-32.71418124793687	5.55243328894927	17.2149400541838	60.54250547705438	0	0	-0.8715981000607177	-3.85855300814772	-5.018949203567954	2.016576856078803	91.97291675370526	0	0
3.880000000000003	2.530802292051221	-0.952008076389618	21.55183372545457	0	0.9399999999999999	0	29.18831433261002	-9.096532777562381	-8.294495674755122	34.36860124299415	0.5998452509952636	0	0	0	29.18831433261002	-9.096532777562381	-8.294495674755122	34.36860124299415	0.5998452509952636	0	0	0	2.373878100079043	-1.33142156136855	8.928977305885827	70.02125717101433	-31.74593694694463	11.05218896805323	17.52629369275679	58.18955505162515	0	0	-0.9655669501385119	-4.061672137243122	-4.997796538613179	2.067207779392442	91.60141410226457	0	0
3.900000000000003	2.611688472851172	-1.161764562147606	22.16995943732837	0	0.9399999999999999	0	29.34016759711018	-9.117476648135348	-8.323381044068935	34.54554211807451	0.602933451846776	0	0	0	29.34016759711018	-9.117476648135348	-8.323381044068935	34.54554211807451	0.602933451846776	0	0	0	2.369048386695379	-1.563808364549854	8.577243533818459	74.20421460193408	-30.65969634325995	17.0085550019634	18.13015161119496	54.71643912866246	0	0	-0.9549725356389355	-4.505489979081854	-4.895529401652563	2.121272236928243	91.7488163764331	0	0
3.920000000000003	2.624655104325417	-1.412528175766788	22.71900418507558	0	0.9399999999999999	0	29.51103769057276	-9.140359614998706	-8.355388923954115	34.74554914866523	0.6064242330577209	0	0	0	29.51103769057276	-9.140359614998706	-8.355388923954115	34.74554914866523	0.6064242330577209	0	0	0	2.279496059592875	-1.800658896840766	8.387383617317672	78.05657401017162	-29.46212606466531	23.51227373852559	18.32333681211816	50.62913636046987	0	0	-0.7172996554067115	-4.957499592887827	-4.661824951638359	2.165395620244322	91.17258873751777	0	0
3.940000000000003	2.584707611225891	-1.687449898821662	23.19257925724732	0	0.9399999999999999	0	29.66059938625778	-9.160100535154358	-8.383206075421031	34.92004817369361	0.6094698155859861	0	0	0	29.66059938625778	-9.160100535154358	-8.383206075421031	34.92004817369361	0.6094698155859861	0	0	0	2.119802591999505	-2.047310465860816	8.302699814072396	81.43239244534986	-28.29326056867767	29.60555611219466	18.3702262319159	46.72987048921945	0	0	-0.3219667808402891	-5.413101397917909	-4.331074967918628	2.208362055063492	90.93159302217062	0	0
3.960000000000003	2.510909952420489	-1.975107383883564	23.57040547812913	0	0.9399999999999999	0	29.78858522094373	-9.176613406738278	-8.406736315951786	35.06943298187044	0.6120770723411321	0	0	0	29.78858522094373	-9.176613406738278	-8.406736315951786	35.06943298187044	0.6120770723411321	0	0	0	1.919117931842914	-2.290319881335753	8.290054541453497	84.60544102728031	-27.25473697661478	35.24566853913478	18.52144624560993	43.18725021048735	0	0	0.176698011397686	-5.837207000417019	-3.94993411756287	2.236964744698378	90.69996830025248	0	0
3.980000000000003	2.523298067895356	-2.199261666894499	23.88799199455902	0	0.9399999999999999	0	29.85470781635653	-9.1849639128019	-8.41873236181849	35.14770996903366	0.6134432634956715	0	0	0	29.85470781635653	-9.1849639128019	-8.41873236181849	35.14770996903366	0.6134432634956715	0	0	0	1.828507468002341	-2.508121112109484	8.355919017435342	87.41090104560521	-26.26118538889288	40.21840745366238	16.68418024946574	39.52956852867301	0	0	0.4600913147466643	-6.231260061734325	-3.520451715104298	2.333417937240985	90.44453799343127	0	0
4.000000000000003	2.635293123882133	-2.372297842456645	24.25155819156841	0	0.9399999999999999	0	29.93012651323788	-9.19444897884412	-8.43237798766982	35.23722797715106	0.6150056474771473	0	0	0	29.93012651323788	-9.19444897884412	-8.43237798766982	35.23722797715106	0.6150056474771473	0	0	0	1.858893459888894	-2.71256474488687	8.408955516087611	89.66099177632987	-25.3642344633471	43.9532485756548	16.70438707269146	37.68671783379146	0	0	0.5161080655947113	-6.619023777243049	-3.091537016888823	2.362212715128208	90.34833724377239	0	0
4.020000000000002	2.792454331320536	-2.636063168134099	24.68240769802919	0	0.9399999999999999	0	30.00075157855827	-9.203381659206508	-8.445192880990611	35.3208030782003	0.6164643081631433	0	0	0	30.00075157855827	-9.203381659206508	-8.445192880990611	35.3208030782003	0.6164643081631433	0	0	0	1.898523023386299	-3.017469147584865	8.532193315707977	91.52153409980737	-24.50410506124064	46.53613493182523	16.7782812563149	36.74379507228056	0	0	0.6543286337522667	-7.18047626583526	-2.524538417283611	2.435920176417438	90.18441657801225	0	0
4.040000000000002	2.901078003781721	-2.815273932971617	25.0683747704636	0	0.9399999999999999	0	30.07034267372211	-9.212170613435138	-8.457812468403864	35.40295112028392	0.6178980619715695	0	0	0	30.07034267372211	-9.212170613435138	-8.457812468403864	35.40295112028392	0.6178980619715695	0	0	0	1.923879273261746	-3.22496758830337	8.516435140752442	94.97345798112052	-22.13560438101054	50.3028338778538	14.46385794916989	35.53587610225546	0	0	0.6990666740341575	-7.587240429978581	-2.141083311258235	2.580193843130803	89.94099886932456	0	0
4.060000000000001	3.039676315052027	-2.963326814582346	25.43987929098603	0	0.9399999999999999	0	30.08044573782762	-9.213956173722135	-8.460057990950563	35.41234011916671	0.6180619309155402	0	0	0	30.08044573782762	-9.213956173722135	-8.460057990950563	35.41234011916671	0.6180619309155402	0	0	0	1.986734480147373	-3.422305142081533	8.495106743648639	95.1120824083448	-22.69230273377773	49.67912255577267	17.91917332569196	38.37102784743342	0	0	0.7172048364965932	-7.981518917050698	-1.887213569256505	2.663588234450584	89.74699496979386	0	0
4.080000000000001	3.140081994652661	-3.124697606083887	25.85484618585969	0	0.9399999999999999	0	30.08681884465568	-9.21508365710319	-8.461475611469639	35.41825304154994	0.6181651308795424	0	0	0	30.08681884465568	-9.21508365710319	-8.461475611469639	35.41825304154994	0.6181651308795424	0	0	0	2.006336700528865	-3.610963094337994	8.461864512654941	96.75554544805743	-21.77072672577086	50.80213302573713	17.78174214307116	38.76531276258562	0	0	0.7638667371486835	-8.342100508279557	-1.501143515322768	2.820307685018839	89.43521833388358	0	0
4.100000000000001	3.17598766237731	-3.210424370354212	26.17176996158693	0	0.9399999999999999	0	30.09453131717447	-9.216449288670891	-8.463192420411499	35.4253967946085	0.6182898128913636	0	0	0	30.09453131717447	-9.216449288670891	-8.463192420411499	35.4253967946085	0.6182898128913636	0	0	0	1.994850536766813	-3.705946960538045	8.333860408212049	98.50410756986365	-20.68521472234989	52.18605258898734	17.4862978763904	38.76477555169684	0	0	1.015803023566015	-8.44694893442451	-2.067125451333026	2.750927613032849	89.63660648169173	0	0
4.12	3.211356100651419	-3.380805620597723	26.57873077067934	0	0.9399999999999999	0	30.1006771936817	-9.217534748204431	-8.464558512173614	35.43109785008631	0.6183893150802904	0	0	0	30.1006771936817	-9.217534748204431	-8.464558512173614	35.43109785008631	0.6183893150802904	0	0	0	1.950958055673319	-3.87350136553348	8.335353546312541	100.118043747363	-20.02595215188739	53.61788940991605	17.08230820626592	38.35464056657777	0	0	1.232429459943742	-8.712896603472005	-2.035593224394686	2.813075771841338	89.61412179395121	0	0
4.14	3.287284410323838	-3.519337832063914	27.00342631831837	0	0.9399999999999999	0	30.10835195600845	-9.21888982503933	-8.466264428164301	35.43821269281975	0.6185134925117504	0	0	0	30.10835195600845	-9.21888982503933	-8.466264428164301	35.43821269281975	0.6185134925117504	0	0	0	1.958388765443455	-4.030373523985983	8.366652781006762	101.5012919661588	-19.47605720180075	55.26993893622988	16.28408768604575	37.50414233136828	0	0	1.318453375777859	-8.974068192923196	-1.987380590107081	2.82154864266237	89.56268558612517	0	0
4.159999999999999	3.34710978576605	-3.631779695223672	27.40302302872908	0	0.9399999999999999	0	30.11631786856438	-9.220294578323822	-8.468034015682591	35.44559867835962	0.6186424022779259	0	0	0	30.11631786856438	-9.220294578323822	-8.468034015682591	35.44559867835962	0.6186424022779259	0	0	0	1.962331268585678	-4.157087030722779	8.401508359229135	102.8489687990535	-19.03695269737259	56.84659487641524	15.42726556900985	37.13816161963801	0	0	1.399114382730582	-9.20098698061361	-2.028750742370259	2.832114640424244	89.56659225986957	0	0
4.179999999999999	3.403578129274805	-3.739634959335946	27.79578765933751	0	0.9399999999999999	0	30.12453502852027	-9.221742018603365	-8.469858488144471	35.45321776794606	0.6187753804772138	0	0	0	30.12453502852027	-9.221742018603365	-8.469858488144471	35.45321776794606	0.6187753804772138	0	0	0	1.965603673186017	-4.277926265600209	8.455874488345652	103.9785849745205	-18.67498425555599	58.2621354869913	14.13670078818655	36.38235240593507	0	0	1.491521403650192	-9.4285704001733	-2.045037282623377	2.827490228834486	89.57826800142979	0	0
4.199999999999998	3.425088630540332	-3.785626640586344	28.03210183321861	0	0.9399999999999999	0	30.12991506656037	-9.222685867291359	-8.471050148282771	35.45822037553958	0.6188626924509057	0	0	0	30.12991506656037	-9.222685867291359	-8.471050148282771	35.45822037553958	0.6188626924509057	0	0	0	1.961528712894819	-4.328022934424538	8.417455288639708	105.1257730576215	-18.23865538274032	59.34295715829771	13.58295644691365	36.78434578179727	0	0	1.527782778535481	-9.558455052853081	-2.311412630635996	2.832858242665691	89.79378835462894	0	0
4.219999999999998	3.482425072009874	-3.846535444236546	28.34434760860451	0	0.9399999999999999	0	30.13692649649069	-9.223917439995928	-8.472604616840139	35.4647278163585	0.6189762687190747	0	0	0	30.13692649649069	-9.223917439995928	-8.472604616840139	35.4647278163585	0.6189762687190747	0	0	0	1.986309146361012	-4.408530943646689	8.463902142267282	106.1271696184334	-18.09386860607925	60.19987505346251	13.11021025945357	37.1102537570914	0	0	1.525675143312994	-9.7337466899879	-2.36358969569435	2.820629488032138	89.80804425529537	0	0
4.239999999999998	3.548637287295619	-3.871769239227764	28.59911138654915	0	0.9399999999999999	0	30.14385935276686	-9.225134296088104	-8.474141197651306	35.47116123031048	0.6190885529746805	0	0	0	30.14385935276686	-9.225134296088104	-8.474141197651306	35.47116123031048	0.6190885529746805	0	0	0	2.035128491780743	-4.462228542198708	8.501944712609621	106.9092204121884	-17.97968433217833	60.95511689925299	12.8654173624922	37.22529744105021	0	0	1.481495842878401	-9.836833093788886	-2.457881520694719	2.808781180592426	89.83414173806904	0	0
